<?xml version="1.0" encoding="UTF-8"?>
<svg width="24px" height="24px" viewBox="0 0 24 24" version="1.1" xmlns="http://www.w3.org/2000/svg" xmlns:xlink="http://www.w3.org/1999/xlink">
    <title>set</title>
    <g id="主页" stroke="none" stroke-width="1" fill="none" fill-rule="evenodd">
        <g id="一张图" transform="translate(-1852, -25)">
            <g id="标题" transform="translate(-0.0022, 0)">
                <g id="set" transform="translate(1852, 25)">
                    <rect id="矩形" x="0" y="0" width="24" height="24"></rect>
                    <path d="M20.4891592,8.62887268 C20.7211527,9.22818418 20.5893391,9.92591558 20.156991,10.3916565 C19.3256847,11.289745 19.3256847,12.7186029 20.156991,13.6500847 C20.5893374,14.1158252 20.7229088,14.8135574 20.4891592,15.4128694 C20.1903826,16.1773873 19.7580345,16.908512 19.2589016,17.5412155 C18.8599468,18.0403502 18.1956053,18.2723419 17.5962951,18.1405266 C16.996984,18.008713 16.3994299,18.107135 15.8669028,18.4059116 C15.3343766,18.7046883 14.9688143,19.2038212 14.7702141,19.7697424 C14.5698578,20.4006872 14.0390885,20.8330353 13.406385,20.9332134 C13.0074294,20.9666067 12.5750813,21 12.1761257,21 C11.7771709,21 11.3448229,20.9666067 10.9458673,20.8998219 C10.3149207,20.799642 9.7823945,20.3672957 9.58203821,19.7363474 C9.21647544,18.5394814 7.98621655,17.84175 6.75595851,18.107135 C6.12501154,18.2407047 5.4923074,18.0069552 5.09335198,17.5078239 C4.59421858,16.8434833 4.16187068,16.143994 3.86309364,15.3794761 C3.63110206,14.780165 3.76291546,14.082431 4.19526343,13.6166914 C5.0265667,12.7186029 5.0265667,11.289745 4.19526343,10.3582641 C3.7629155,9.89252315 3.6311021,9.19479046 3.86309364,8.59547939 C4.16187068,7.83096142 4.59421858,7.09983673 5.09335198,6.46713259 C5.4923074,5.96799903 6.1566468,5.73600726 6.78935115,5.86782045 C7.38866286,6.00139189 7.98621655,5.90121353 8.51874275,5.60243626 C9.05126896,5.30365942 9.41683173,4.80452564 9.61543064,4.23860668 C9.81578651,3.60765976 10.3465558,3.1753118 10.9792597,3.07513365 C11.7771692,2.97495545 12.6084729,2.97495545 13.4397766,3.07513365 C14.070724,3.17531184 14.6032494,3.60765987 14.8036057,4.23860668 C14.9705695,4.80452564 15.3695269,5.30190139 15.9002935,5.60243626 C16.4328198,5.90121353 17.030373,6.00139146 17.6296858,5.86782045 C18.2606306,5.73424966 18.92673,5.96799903 19.2922932,6.46713259 C19.7580328,7.16662245 20.1903791,7.86435471 20.4891592,8.62887268 Z M19.2589016,9.1280056 C18.9935165,8.49705906 18.6279533,7.86435471 18.1956053,7.33182893 C18.1288204,7.23165035 17.9952507,7.19825749 17.8634354,7.23165035 C16.9653477,7.43200708 16.0022312,7.2984365 15.2025621,6.83269558 C14.3712593,6.36695466 13.7719474,5.60243669 13.5065623,4.70434781 C13.4731699,4.57077702 13.3729909,4.47235637 13.241179,4.47235637 C12.5434459,4.37217822 11.8439567,4.37217822 11.1462244,4.47235637 C11.012653,4.50574923 10.9142326,4.57253451 10.8808398,4.70434781 C10.6136999,5.60243647 10.0143884,6.36871183 9.18308516,6.83269515 C8.38517432,7.29843607 7.42030048,7.43200708 6.49057646,7.23164992 C6.35700545,7.19825749 6.22519226,7.26504278 6.15840654,7.3318285 C5.72605848,7.89774714 5.36049603,8.49530168 5.09511162,9.12800517 C5.06171898,9.26157661 5.06171898,9.3933898 5.16189734,9.49356709 C6.45894077,10.9241827 6.45894077,13.1175576 5.16189734,14.5481724 C5.06171908,14.6483505 5.06171908,14.7801633 5.09511162,14.8803432 C5.36049603,15.5446813 5.72605848,16.143994 6.12501368,16.6765203 C6.19179919,16.7767001 6.35700545,16.8100917 6.45718338,16.8100917 C8.35178146,16.3777436 10.2481376,17.5078239 10.8456917,19.3373943 C10.8790845,19.4709641 10.9792631,19.5377489 11.111075,19.5693844 C11.4432449,19.602776 11.8088081,19.636171 12.1409772,19.636171 C12.5065404,19.636171 12.8387103,19.602776 13.2042727,19.5693844 C13.3378432,19.5359911 13.4362636,19.4692045 13.4696577,19.3373943 C13.735041,18.4393049 14.334353,17.674787 15.1656558,17.2090465 C15.9635679,16.7433051 16.9284431,16.6097354 17.8581654,16.8100917 C17.9917351,16.8434833 18.1235504,16.7766975 18.1903353,16.7099127 C18.6226833,16.1439923 18.9882465,15.5464391 19.2536316,14.913733 C19.2870232,14.813554 19.2870232,14.6483497 19.186845,14.5481724 C17.8898008,13.1175568 17.8898008,10.9241827 19.186845,9.49356666 C19.2922966,9.39338894 19.2922966,9.26157532 19.2589016,9.1280056 Z M12.0425569,15.3460845 C10.2129869,15.3460845 8.71734424,13.8504418 8.71734424,12.0208715 C8.71734424,10.1913015 10.2147443,8.69565797 12.0425569,8.69565797 C13.8703694,8.69565797 15.3677708,10.1913002 15.3677708,12.0208706 C15.3677708,13.8504418 13.9055197,15.3460845 12.0425569,15.3460845 Z M12.0425569,14.0156479 C13.1392447,14.0156479 14.0373333,13.1175593 14.0373333,12.0208715 C14.0373333,10.9241844 13.1392447,10.0260946 12.042556,10.0260946 C10.9458677,10.0260946 10.04778,10.9241836 10.04778,12.0208715 C10.04778,13.1175602 10.9458694,14.0156462 12.0425569,14.0156479 Z" id="路径" fill="#223140" fill-rule="nonzero"></path>
                </g>
            </g>
        </g>
    </g>
</svg>